<svg xmlns="http://www.w3.org/2000/svg" viewBox="0 0 64 64" role="img" aria-label="LOL-GAI">
  <rect width="64" height="64" rx="14" fill="#141312"/>
  <!-- Copper titlebar + prompt -->
  <path d="M0 0h64v18H0z" fill="#b45309"/>
  <circle cx="12" cy="9" r="2.8" fill="#141312"/>
  <circle cx="22" cy="9" r="2.8" fill="#141312" fill-opacity="0.45"/>
  <circle cx="32" cy="9" r="2.8" fill="#141312" fill-opacity="0.45"/>
  <path d="M44 5.5 L50 9 L44 12.5 Z" fill="#141312"/>
  <rect x="50" y="7.5" width="5" height="3" rx="0.6" fill="#141312"/>
  <!-- Solid cream fox head (ears + face) -->
  <path fill="#f5f4f1" d="
    M18 31
    L25.5 15
    L31.5 28.5
    L32.5 28.5
    L38.5 15
    L46 31
    C46 31 48 48 32 54
    C16 48 18 31 18 31
    Z"/>
  <!-- Copper ear overlays -->
  <path fill="#b45309" d="M20 30 L25.5 17 L30 29 Z"/>
  <path fill="#b45309" d="M34 29 L38.5 17 L44 30 Z"/>
  <!-- Mask + copper eyes -->
  <ellipse cx="32" cy="36.5" rx="11.5" ry="5.5" fill="#141312"/>
  <circle cx="26.5" cy="36.5" r="2.9" fill="#b45309"/>
  <circle cx="37.5" cy="36.5" r="2.9" fill="#b45309"/>
</svg>
